<!DOCTYPE svg PUBLIC "-//W3C//DTD SVG 1.1//EN" "http://www.w3.org/Graphics/SVG/1.1/DTD/svg11.dtd">
<!-- Uploaded to: SVG Repo, www.svgrepo.com, Transformed by: SVG Repo Mixer Tools -->
<svg height="64px" width="64px" version="1.1" id="Layer_1" xmlns="http://www.w3.org/2000/svg" xmlns:xlink="http://www.w3.org/1999/xlink" viewBox="0 0 512 512" xml:space="preserve" fill="#000000">
<g id="SVGRepo_bgCarrier" stroke-width="0"/>
<g id="SVGRepo_tracerCarrier" stroke-linecap="round" stroke-linejoin="round"/>
<g id="SVGRepo_iconCarrier"> <path style="fill:#FF9911;" d="M449.482,170.367L319.421,57.269l-42-36.521c-5.915-5.144-13.523-7.976-21.421-7.976 c-7.899,0-15.506,2.833-21.421,7.976L192.58,57.269L62.518,170.367l-55.46,48.225v104.972h497.884V218.593L449.482,170.367z"/> <path style="fill:#ECE5DD;" d="M437.072,56.191H74.928c-7.437,0-13.488,6.051-13.488,13.488v170.193v107.39h389.12v-107.39V69.679 C450.56,62.242,444.51,56.191,437.072,56.191z"/> <path style="fill:#D9CBBD;" d="M87.397,69.679c0-7.437,6.05-13.488,13.488-13.488H74.928c-7.437,0-13.488,6.051-13.488,13.488 v170.193v107.39h25.957v-107.39V69.679z"/> <path style="fill:#FFB656;" d="M7.058,218.592L7.058,218.592l0.487,236.707v1.403v23.125c0,10.685,8.693,19.378,19.378,19.378 h458.153c10.685,0,19.378-8.693,19.378-19.378v-23.126v-1.402l0.487-236.707l-247.904,96.833L7.058,218.592z"/> <g> <polygon style="fill:#FFA733;" points="330.071,287.02 302.298,295.64 327.737,309.999 504.455,457.669 504.942,218.593 "/> <polygon style="fill:#FFA733;" points="181.813,285.816 7.058,218.592 7.545,456.702 184.265,309.436 201.132,291.665 "/> <path style="fill:#FFA733;" d="M33.502,479.828v-23.125v-1.403l-0.467-226.645L7.058,218.592l0.487,236.707v1.403v23.125 c0,10.685,8.693,19.378,19.378,19.378H52.88C42.195,499.206,33.502,490.513,33.502,479.828z"/> </g> <polygon style="fill:#FF9911;" points="33.035,228.584 7.058,218.592 7.545,456.702 33.458,435.109 "/> <path style="fill:#FF6342;" d="M255.682,380.634c-4.053,0-7.862-1.576-10.725-4.44l-51.496-51.496 c-8.361-8.36-12.965-19.476-12.965-31.302c0-11.825,4.605-22.941,12.966-31.302c8.36-8.361,19.476-12.965,31.301-12.965 c11.646,0,22.605,4.467,30.921,12.589c8.306-8.112,19.265-12.573,30.92-12.573c11.834,0,22.951,4.599,31.301,12.95 c8.361,8.36,12.965,19.476,12.965,31.302s-4.604,22.942-12.966,31.302l-51.493,51.495 C263.543,379.058,259.735,380.634,255.682,380.634z"/> <path style="fill:#FE5025;" d="M219.33,324.699c-8.361-8.36-12.965-19.476-12.965-31.302c0-11.824,4.605-22.941,12.966-31.302 c5.214-5.214,11.499-8.966,18.36-11.053c-4.137-1.257-8.482-1.913-12.928-1.913c-11.825,0-22.941,4.604-31.301,12.965 c-8.361,8.361-12.966,19.478-12.966,31.302c0,11.825,4.604,22.941,12.965,31.302l51.496,51.496c2.863,2.863,6.671,4.44,10.725,4.44 c4.053,0,7.861-1.576,10.727-4.44l2.209-2.209L219.33,324.699z"/> <g> <path style="fill:#C0AB91;" d="M158.989,204.941c4.465,0,8.084-3.62,8.084-8.084v-34.785l5.761,6.066 c1.976,2.08,4.755,3.295,7.623,3.332c2.889,0.011,5.677-1.106,7.706-3.135l5.857-5.857v34.378c0,4.465,3.62,8.084,8.084,8.084 s8.084-3.62,8.084-8.084v-47.572c0-4.345-2.593-8.225-6.607-9.889c-4.015-1.664-8.593-0.752-11.664,2.32l-11.221,11.221 l-11.328-11.926c-3.033-3.195-7.637-4.204-11.73-2.57c-4.092,1.633-6.736,5.535-6.736,9.94v48.476 C150.905,201.321,154.525,204.941,158.989,204.941z"/> <path style="fill:#C0AB91;" d="M309.895,204.941c4.466,0,8.084-3.62,8.084-8.084v-34.785l5.759,6.063 c1.975,2.083,4.754,3.297,7.623,3.335c0.046,0,0.092,0.001,0.137,0.001c2.822,0,5.576-1.139,7.571-3.136l5.857-5.857v34.378 c0,4.465,3.618,8.084,8.084,8.084s8.084-3.62,8.084-8.084v-47.572c0-4.344-2.593-8.225-6.606-9.889 c-4.012-1.662-8.592-0.753-11.666,2.32l-11.22,11.221l-11.327-11.927c-3.032-3.194-7.638-4.203-11.73-2.57s-6.736,5.535-6.736,9.94 v48.476C301.811,201.321,305.429,204.941,309.895,204.941z"/> <path style="fill:#C0AB91;" d="M256,207.372c16.344,0,29.642-15.548,29.642-34.659S272.344,138.055,256,138.055 c-16.345,0-29.642,15.548-29.642,34.659S239.655,207.372,256,207.372z M256,154.224c7.303,0,13.474,8.467,13.474,18.49 c0,10.023-6.171,18.49-13.474,18.49c-7.304,0-13.474-8.467-13.474-18.49C242.526,162.69,248.696,154.224,256,154.224z"/> </g> <path d="M509.22,212.315l-51.115-44.448V69.679c0-11.598-9.435-21.033-21.033-21.033h-116.07l-38.631-33.593 c-15.033-13.073-37.709-13.073-52.744,0l-38.631,33.593H74.928c-11.598,0-21.033,9.436-21.033,21.033v98.187L2.78,212.315 c-1.767,1.535-2.78,3.76-2.78,6.1v261.413c0,14.846,12.078,26.924,26.924,26.924h458.153c14.845,0,26.924-12.078,26.924-26.924 V218.414C512,216.074,510.987,213.849,509.22,212.315z M458.105,189.293l30.429,26.46l-30.429,11.906V189.293z M240.238,27.255 c8.985-7.814,22.538-7.814,31.525,0l24.6,21.391h-80.725L240.238,27.255z M53.895,189.293v38.367l-30.429-11.908L53.895,189.293z M16.168,230.259l156.825,61.366c-0.019,0.59-0.043,1.179-0.043,1.772c0,4.41,0.552,8.733,1.615,12.897L16.168,438.292V230.259z M495.832,479.828c0,5.931-4.825,10.755-10.755,10.755H26.924c-5.931,0-10.755-4.825-10.755-10.755v-20.49l165.179-137.649 c1.947,2.974,4.206,5.773,6.778,8.345l51.496,51.496c4.428,4.428,10.243,6.642,16.061,6.642c5.815,0,11.633-2.214,16.062-6.642 l51.495-51.496c2.671-2.671,5.001-5.589,6.997-8.691l165.596,137.995V479.828z M189.119,293.397c0-9.521,3.707-18.472,10.44-25.204 c6.733-6.733,15.683-10.439,25.203-10.439c9.521,0,18.472,3.707,25.204,10.439c3.157,3.158,8.277,3.157,11.432,0 c13.897-13.898,36.51-13.898,50.408,0c6.733,6.733,10.44,15.683,10.44,25.204s-3.707,18.472-10.44,25.204l-51.495,51.495 c-2.554,2.552-6.704,2.552-9.257,0L199.558,318.6C192.826,311.869,189.119,302.918,189.119,293.397z M495.832,438.291 l-158.92-132.433c0.991-4.029,1.504-8.205,1.504-12.459c0-0.511-0.023-1.018-0.037-1.525l44.126-17.267 c5.429-2.125,6.893-9.122,2.77-13.245l0,0c-2.271-2.271-5.672-2.983-8.663-1.812l-41.288,16.156 c-2.551-7.039-6.633-13.492-12.084-18.943c-18.392-18.392-47.282-20.038-67.557-4.943c-20.274-15.095-49.166-13.449-67.558,4.943 c-5.395,5.395-9.446,11.774-12.001,18.727L70.063,233.987V69.679c0-2.687,2.178-4.865,4.865-4.865h240.029l0.411,0.358l0.31-0.358 h121.395c2.686,0,4.865,2.177,4.865,4.865v164.307l-25.298,9.899c-5.429,2.125-6.893,9.122-2.77,13.245l0,0 c2.271,2.271,5.672,2.983,8.662,1.812l73.301-28.683V438.291z"/> </g>
</svg>