<!DOCTYPE svg PUBLIC "-//W3C//DTD SVG 1.1//EN" "http://www.w3.org/Graphics/SVG/1.1/DTD/svg11.dtd">
<!-- Uploaded to: SVG Repo, www.svgrepo.com, Transformed by: SVG Repo Mixer Tools -->
<svg version="1.1" id="Layer_1" xmlns="http://www.w3.org/2000/svg" xmlns:xlink="http://www.w3.org/1999/xlink" viewBox="0 0 512 512" xml:space="preserve" width="64px" height="64px" fill="#000000">
<g id="SVGRepo_bgCarrier" stroke-width="0"/>
<g id="SVGRepo_tracerCarrier" stroke-linecap="round" stroke-linejoin="round"/>
<g id="SVGRepo_iconCarrier"> <rect y="57.332" width="512" height="397.336"/> <circle style="fill:#E21B1B;" cx="44.192" cy="89.38" r="8.928"/> <g style="opacity:0.7;"> <circle style="fill:#FFFFFF;" cx="70.968" cy="89.38" r="8.928"/> </g> <g> <circle style="fill:#666666;" cx="97.736" cy="89.38" r="8.928"/> <polygon style="fill:#666666;" points="443.52,105.06 155.96,105.06 175.08,73.716 462.656,73.716 "/> </g> <g> <path style="fill:#FFFFFF;" d="M195.2,82.396l1.856,7.128c0.408,1.56,0.8,3.008,1.048,4.456h0.096c0.312-1.416,0.8-2.92,1.24-4.424 l2.296-7.16h2.144l2.168,7.008c0.52,1.672,0.928,3.16,1.248,4.576h0.088c0.28-1.536,0.64-3.048,1.08-4.544l2.008-7.04h2.52 l-4.52,14.016h-2.312l-2.144-6.688c-0.488-1.6-0.896-2.952-1.248-4.616h-0.056c-0.336,1.568-0.76,3.12-1.28,4.64l-2.264,6.664 h-2.312l-4.224-14.016H195.2z"/> <path style="fill:#FFFFFF;" d="M216.856,82.396l1.856,7.128c0.408,1.56,0.8,3.008,1.048,4.456h0.088 c0.32-1.416,0.8-2.92,1.248-4.424l2.28-7.16h2.144l2.176,7.008c0.52,1.672,0.928,3.16,1.24,4.576h0.096 c0.272-1.536,0.632-3.056,1.08-4.544l2.008-7.04h2.52l-4.52,14.016h-2.328l-2.144-6.688c-0.496-1.512-0.912-3.056-1.24-4.616 h-0.064c-0.328,1.568-0.752,3.12-1.272,4.64l-2.264,6.664h-2.328l-4.232-14.016H216.856z"/> <path style="fill:#FFFFFF;" d="M238.488,82.396l1.856,7.128c0.408,1.56,0.8,3.008,1.048,4.456h0.088 c0.32-1.416,0.8-2.92,1.248-4.424l2.28-7.16h2.144l2.176,7.008c0.52,1.672,0.928,3.16,1.24,4.576h0.096 c0.272-1.536,0.632-3.056,1.08-4.544l2.008-7.04h2.52l-4.52,14.016h-2.328l-2.152-6.688c-0.496-1.512-0.912-3.056-1.24-4.616 h-0.064c-0.328,1.568-0.752,3.12-1.272,4.64l-2.264,6.664h-2.328l-4.232-14.016H238.488z"/> </g> <g> <polygon style="fill:#666666;" points="0,423.58 82.856,423.58 113.944,454.66 0,454.66 "/> <polygon style="fill:#666666;" points="512,423.58 429.144,423.58 398.056,454.66 512,454.66 "/> </g> <path style="fill:#FFFFFF;" d="M79.128,372.564v-5.808c7.032-0.384,13.592-3.672,18.104-9.08c8.208-13.4,15.128-27.536,20.68-42.232 l65.168-153.512h6.232L267.2,339.276c2.888,7.912,7.096,15.28,12.448,21.792c4.568,3.36,10,5.336,15.656,5.696v5.808H215.8v-5.808 c5.992-0.232,11.936-1.224,17.68-2.96c2.664-1.168,4-4.032,4-8.592c-0.224-2.72-0.752-5.416-1.56-8.024 c-1.12-4.152-2.552-8.216-4.28-12.16l-12.52-30.12h-82.4c-8.12,20.464-12.976,32.952-14.552,37.464 c-1.36,3.424-2.176,7.04-2.4,10.72c-0.376,4.632,2.176,9,6.4,10.944c4.816,1.648,9.848,2.568,14.936,2.728v5.808L79.128,372.564z M213.848,292.228l-35.856-86.144l-36,86.152L213.848,292.228z"/> <circle style="fill:#E21B1B;" cx="356.488" cy="249.596" r="76.384"/> <path style="fill:#FFFFFF;" d="M315.088,285.764v-2.304c2.8-0.152,5.408-1.456,7.2-3.608c3.264-5.328,6.008-10.952,8.216-16.8 l25.888-60.984h2.48l30.96,70.456c1.152,3.144,2.816,6.072,4.944,8.656c1.816,1.336,3.968,2.12,6.216,2.264v2.304h-31.6v-2.304 c2.384-0.088,4.744-0.488,7.024-1.176c1.064-0.464,1.6-1.6,1.6-3.416c-0.088-1.088-0.288-2.16-0.608-3.2 c-0.448-1.64-1.016-3.248-1.704-4.8l-4.976-11.952h-32.776c-3.224,8.128-5.152,13.088-5.784,14.88 c-0.536,1.36-0.856,2.8-0.944,4.256c-0.152,1.84,0.864,3.584,2.544,4.352c1.912,0.656,3.912,1.024,5.936,1.088v2.304 L315.088,285.764z M368.608,253.844L354.4,219.612l-14.304,34.224L368.608,253.844z"/> </g>
</svg>