<!DOCTYPE svg PUBLIC "-//W3C//DTD SVG 1.1//EN" "http://www.w3.org/Graphics/SVG/1.1/DTD/svg11.dtd">
<!-- Uploaded to: SVG Repo, www.svgrepo.com, Transformed by: SVG Repo Mixer Tools -->
<svg version="1.1" id="Layer_1" xmlns="http://www.w3.org/2000/svg" xmlns:xlink="http://www.w3.org/1999/xlink" viewBox="0 0 512 512" xml:space="preserve" width="64px" height="64px" fill="#000000">
<g id="SVGRepo_bgCarrier" stroke-width="0"/>
<g id="SVGRepo_tracerCarrier" stroke-linecap="round" stroke-linejoin="round"/>
<g id="SVGRepo_iconCarrier"> <path d="M512,84.128v-25.44c0-15.816-12.944-28.752-28.752-28.752h-368.24H28.752C12.936,29.936,0,42.872,0,58.688V84.12h512V84.128 z"/> <g style="opacity:0.25;"> <path style="fill:#FFFFFF;" d="M147.032,29.936h-32.024H28.752C12.936,29.936,0,42.872,0,58.688V84.12h115.888L147.032,29.936z"/> </g> <circle style="fill:#D80E47;" cx="40.528" cy="57.032" r="8.184"/> <circle style="fill:#05C3D6;" cx="65.088" cy="57.032" r="8.184"/> <g> <circle style="fill:#FFFFFF;" cx="89.648" cy="57.032" r="8.184"/> <path style="fill:#FFFFFF;" d="M428.248,71.408H170.872c-7.904,0-14.376-6.472-14.376-14.376l0,0 c0-7.904,6.472-14.376,14.376-14.376h257.376c7.904,0,14.376,6.472,14.376,14.376l0,0C442.632,64.936,436.16,71.408,428.248,71.408 z"/> </g> <path d="M180.576,50.472l1.968,7.56c0.432,1.672,0.832,3.2,1.112,4.752h0.096c0.336-1.512,0.832-3.112,1.32-4.72l2.432-7.592h2.28 l2.304,7.456c0.552,1.784,0.984,3.344,1.32,4.856h0.096c0.24-1.512,0.648-3.08,1.144-4.832l2.12-7.488h2.68l-4.8,14.888h-2.464 l-2.288-7.096c-0.52-1.656-0.952-3.144-1.32-4.888h-0.064c-0.368,1.784-0.832,3.328-1.352,4.92l-2.4,7.08h-2.456l-4.496-14.888 h2.768V50.472z"/> <path d="M203.544,50.472l1.968,7.56c0.432,1.672,0.832,3.2,1.112,4.752h0.096c0.336-1.512,0.832-3.112,1.32-4.72l2.432-7.592h2.28 l2.304,7.456c0.552,1.784,0.984,3.344,1.32,4.856h0.096c0.24-1.512,0.648-3.08,1.144-4.832l2.12-7.488h2.68l-4.8,14.888h-2.464 l-2.288-7.096c-0.52-1.656-0.952-3.144-1.32-4.888h-0.064c-0.368,1.784-0.832,3.328-1.352,4.92l-2.4,7.08h-2.464l-4.496-14.888 h2.776V50.472z"/> <path d="M226.512,50.472l1.968,7.56c0.432,1.672,0.832,3.2,1.112,4.752h0.096c0.336-1.512,0.832-3.112,1.32-4.72l2.432-7.592h2.28 l2.304,7.456c0.552,1.784,0.984,3.344,1.32,4.856h0.096c0.24-1.512,0.648-3.08,1.144-4.832l2.12-7.488h2.68l-4.8,14.888h-2.464 l-2.288-7.096c-0.52-1.656-0.952-3.144-1.32-4.888h-0.064c-0.368,1.784-0.832,3.328-1.352,4.92l-2.4,7.08h-2.464l-4.488-14.896 H226.512z"/> <path d="M246.192,63.768c0-1.144,0.768-1.936,1.84-1.936s1.816,0.8,1.816,1.936c0,1.112-0.704,1.936-1.84,1.936 C246.928,65.704,246.192,64.88,246.192,63.768z"/> <g> <rect x="461.328" y="55.4" style="fill:#FFFFFF;" width="23" height="4"/> <polygon style="fill:#FFFFFF;" points="474.592,69.328 471.752,66.504 480.856,57.4 471.752,48.296 474.592,45.472 486.512,57.4 "/> </g> <polygon style="fill:#C9C9C9;" points="429.816,52.384 422.168,62.288 414.512,52.384 "/> <rect y="84.128" style="fill:#05C3D6;" width="512" height="368.08"/> <rect x="15.984" y="100.176" width="480" height="336"/> <g style="opacity:0.75;"> <path style="fill:#FFFFFF;" d="M492,104.176v328H20v-328L492,104.176 M496,100.176H16v336h480V100.176L496,100.176z"/> </g> <path style="fill:#FFFFFF;" d="M353.728,230.008h-4.592c-4.568-19.312-21.88-33.784-42.592-33.784 c-5.032,0-10.128,1.112-14.344,2.528c-10.128-28.888-37.568-49.64-69.912-49.64c-40.952,0-74.152,33.2-74.152,74.152 c0,2.576,0.136,5.128,0.392,7.632c-26.92,4.656-47.576,28.208-47.576,56.4c0,31.512,25.784,57.296,57.296,57.296h195.48 c31.512,0,57.296-25.784,57.296-57.296C411.024,255.792,385.24,230.008,353.728,230.008z"/> <polygon style="fill:#D80E47;" points="198.768,425.84 237.784,386.056 237.784,482.064 274.184,482.064 274.184,386.056 313.2,425.84 339.176,400.504 255.984,315.68 172.792,400.504 "/> <path style="fill:#E0E0E0;" d="M292.192,198.752c0,0,8.136,15.096,8.136,44.312c0,0,9.92-18.688,9.92-46.68 C310.256,196.384,302.264,195.272,292.192,198.752z"/> </g>
</svg>