<!DOCTYPE svg PUBLIC "-//W3C//DTD SVG 1.1//EN" "http://www.w3.org/Graphics/SVG/1.1/DTD/svg11.dtd">
<!-- Uploaded to: SVG Repo, www.svgrepo.com, Transformed by: SVG Repo Mixer Tools -->
<svg height="64px" width="64px" version="1.1" id="Layer_1" xmlns="http://www.w3.org/2000/svg" xmlns:xlink="http://www.w3.org/1999/xlink" viewBox="0 0 503.467 503.467" xml:space="preserve" fill="#000000">
<g id="SVGRepo_bgCarrier" stroke-width="0"/>
<g id="SVGRepo_tracerCarrier" stroke-linecap="round" stroke-linejoin="round"/>
<g id="SVGRepo_iconCarrier"> <g transform="translate(1 1)"> <path style="fill:#80D6FA;" d="M131.267,481.133h253.44c11.947,10.24,28.16,17.067,45.227,17.067h-384 c-23.893,0-42.667-18.773-42.667-42.667s18.773-42.667,42.667-42.667S88.6,431.64,88.6,455.533V54.467h375.467 c0,0,34.133,0,34.133,34.133v341.333c0-17.067-6.827-33.28-17.067-45.227V97.133c0-4.267-3.413-8.533-8.533-8.533h-85.333 c-5.12,0-8.533,4.267-8.533,8.533v25.6v34.133V191v34.133v34.133V293.4v34.133v51.2h-51.2H293.4h-34.133h-34.133H191h-34.133h-25.6 c-4.267,0-8.533,3.413-8.533,8.533V472.6C122.733,477.72,127,481.133,131.267,481.133"/> <path style="fill:#F2EDDA;" d="M225.133,378.733h34.133H293.4h34.133h51.2l2.56,2.56c-11.947,12.8-19.627,29.867-19.627,48.64 c0,20.48,9.387,38.4,23.04,51.2h-253.44c-4.267,0-8.533-3.413-8.533-8.533v-85.333c0-5.12,4.267-8.533,8.533-8.533h25.6H191 H225.133z M429.933,361.667c-18.773,0-35.84,7.68-48.64,19.627l-2.56-2.56v-51.2V293.4v-34.133v-34.133V191v-34.133v-34.133v-25.6 c0-4.267,3.413-8.533,8.533-8.533H472.6c5.12,0,8.533,4.267,8.533,8.533v287.573C468.333,370.2,450.413,361.667,429.933,361.667z"/> <path style="fill:#FF7474;" d="M429.933,395.8c18.773,0,34.133,15.36,34.133,34.133s-15.36,34.133-34.133,34.133 s-34.133-15.36-34.133-34.133S411.16,395.8,429.933,395.8"/> <path style="fill:#AAB1BA;" d="M464.067,429.933c0-18.773-15.36-34.133-34.133-34.133S395.8,411.16,395.8,429.933 s15.36,34.133,34.133,34.133S464.067,448.707,464.067,429.933 M481.133,384.707c10.24,11.947,17.067,28.16,17.067,45.227 c0,37.547-30.72,68.267-68.267,68.267c-17.067,0-33.28-6.827-45.227-17.067c-14.507-12.8-23.04-30.72-23.04-51.2 c0-18.773,7.68-35.84,19.627-48.64c12.8-11.947,29.867-19.627,48.64-19.627C450.413,361.667,468.333,370.2,481.133,384.707"/> <path style="fill:#ECF4F7;" d="M88.6,54.467v401.067c0-23.893-18.773-42.667-42.667-42.667S3.267,431.64,3.267,455.533v-409.6 c0-23.893,18.773-42.667,42.667-42.667S88.6,22.04,88.6,45.933V54.467z"/> </g> <path style="fill:#51565F;" d="M430.933,503.467c-17.92,0-34.133-6.827-46.933-17.067H132.267c-7.68,0-12.8-5.12-12.8-12.8v-85.333 c0-7.68,5.12-12.8,12.8-12.8h196.267c2.56,0,4.267,1.707,4.267,4.267V396.8c0,2.56-1.707,4.267-4.267,4.267 s-4.267-1.707-4.267-4.267V384h-25.6v29.867c0,2.56-1.707,4.267-4.267,4.267s-4.267-1.707-4.267-4.267V384h-25.6v12.8 c0,2.56-1.707,4.267-4.267,4.267S256,399.36,256,396.8V384h-25.6v12.8c0,2.56-1.707,4.267-4.267,4.267s-4.267-1.707-4.267-4.267V384 h-25.6v12.8c0,2.56-1.707,4.267-4.267,4.267s-4.267-1.707-4.267-4.267V384h-25.6v29.867c0,2.56-1.707,4.267-4.267,4.267 c-2.56,0-4.267-1.707-4.267-4.267V384h-21.333c-1.707,0-4.267,0.853-4.267,4.267V473.6c0,3.413,2.56,4.267,4.267,4.267h243.2 c-11.093-12.8-17.067-29.013-17.067-46.933c0-40.107,32.427-72.533,72.533-72.533c17.92,0,34.133,6.827,46.933,17.067V98.133 c0-2.56-1.707-4.267-4.267-4.267h-85.333c-2.56,0-4.267,1.707-4.267,4.267v21.333h29.867c2.56,0,4.267,1.707,4.267,4.267 c0,2.56-1.707,4.267-4.267,4.267H384v25.6h12.8c2.56,0,4.267,1.707,4.267,4.267c0,2.56-1.707,4.267-4.267,4.267H384v25.6h12.8 c2.56,0,4.267,1.707,4.267,4.267c0,2.56-1.707,4.267-4.267,4.267H384v25.6h12.8c2.56,0,4.267,1.707,4.267,4.267 s-1.707,4.267-4.267,4.267H384V256h29.867c2.56,0,4.267,1.707,4.267,4.267c0,2.56-1.707,4.267-4.267,4.267H384v25.6h12.8 c2.56,0,4.267,1.707,4.267,4.267c0,2.56-1.707,4.267-4.267,4.267H384v25.6h12.8c2.56,0,4.267,1.707,4.267,4.267 c0,2.56-1.707,4.267-4.267,4.267h-17.067c-2.56,0-4.267-1.707-4.267-4.267v-230.4c0-6.827,5.973-12.8,12.8-12.8H473.6 c6.827,0,12.8,5.973,12.8,12.8V384c10.24,12.8,17.067,29.013,17.067,46.933C503.467,471.04,471.04,503.467,430.933,503.467z M430.933,366.933c-34.987,0-64,29.013-64,64s29.013,64,64,64s64-29.013,64-64S465.92,366.933,430.933,366.933z M89.6,503.467 H46.933C21.333,503.467,0,482.133,0,456.533v-409.6C0,21.333,21.333,0,46.933,0s46.933,21.333,46.933,46.933V51.2h337.067 c2.56,0,4.267,1.707,4.267,4.267c0,2.56-1.707,4.267-4.267,4.267H93.867v396.8c0,2.56-1.707,4.267-4.267,4.267 c-2.56,0-4.267-1.707-4.267-4.267c0-21.333-17.067-38.4-38.4-38.4s-38.4,17.067-38.4,38.4s17.067,38.4,38.4,38.4H89.6 c2.56,0,4.267,1.707,4.267,4.267C93.867,501.76,92.16,503.467,89.6,503.467z M46.933,8.533c-21.333,0-38.4,17.067-38.4,38.4v382.293 c8.533-11.947,22.187-19.627,38.4-19.627s29.867,7.68,38.4,19.627V46.933C85.333,25.6,68.267,8.533,46.933,8.533z M430.933,469.333 c-21.333,0-38.4-17.067-38.4-38.4c0-21.333,17.067-38.4,38.4-38.4c21.333,0,38.4,17.067,38.4,38.4 C469.333,452.267,452.267,469.333,430.933,469.333z M430.933,401.067c-16.213,0-29.867,13.653-29.867,29.867 S414.72,460.8,430.933,460.8s29.867-13.653,29.867-29.867S447.147,401.067,430.933,401.067z M311.467,332.8L311.467,332.8 L311.467,332.8L311.467,332.8L311.467,332.8L311.467,332.8c-0.853,0-0.853,0-1.707,0c-0.853,0-0.853-0.853-1.707-0.853l0,0l0,0l0,0 l0,0l0,0l-17.067-17.067c-1.707-1.707-1.707-4.267,0-5.973c1.707-1.707,4.267-1.707,5.973,0l9.387,9.387V99.84l-9.387,9.387 c-1.707,1.707-4.267,1.707-5.973,0c-1.707-1.707-1.707-4.267,0-5.973l17.067-17.067l0,0l0,0l0,0l0,0l0,0 c0,0,0.853-0.853,1.707-0.853c0.853,0,0.853,0,1.707,0l0,0l0,0l0,0l0,0l0,0l0,0l0,0l0,0l0,0c0.853,0,0.853,0,1.707,0 c0.853,0,0.853,0.853,1.707,0.853l0,0l0,0l0,0l0,0l0,0l17.067,17.067c1.707,1.707,1.707,4.267,0,5.973s-4.267,1.707-5.973,0 l-9.387-9.387v218.453l9.387-9.387c1.707-1.707,4.267-1.707,5.973,0c1.707,1.707,1.707,4.267,0,5.973l-17.067,17.067l0,0l0,0l0,0 l0,0l0,0c0,0-0.853,0.853-1.707,0.853C312.32,332.8,312.32,332.8,311.467,332.8L311.467,332.8L311.467,332.8L311.467,332.8 L311.467,332.8L311.467,332.8z"/> </g>
</svg>